<svg width="50" height="50" viewBox="0 0 50 50" fill="none" xmlns="http://www.w3.org/2000/svg">
<circle cx="25" cy="25" r="25" fill="#F1BC00"/>
<path d="M25 12.8125C18.2693 12.8125 12.8125 18.2693 12.8125 25C12.8125 31.7307 18.2693 37.1875 25 37.1875C31.7307 37.1875 37.1875 31.7307 37.1875 25C37.1875 18.2693 31.7307 12.8125 25 12.8125ZM30.625 26.875H25C24.7514 26.875 24.5129 26.7762 24.3371 26.6004C24.1613 26.4246 24.0625 26.1861 24.0625 25.9375V17.5C24.0625 17.2514 24.1613 17.0129 24.3371 16.8371C24.5129 16.6613 24.7514 16.5625 25 16.5625C25.2486 16.5625 25.4871 16.6613 25.6629 16.8371C25.8387 17.0129 25.9375 17.2514 25.9375 17.5V25H30.625C30.8736 25 31.1121 25.0988 31.2879 25.2746C31.4637 25.4504 31.5625 25.6889 31.5625 25.9375C31.5625 26.1861 31.4637 26.4246 31.2879 26.6004C31.1121 26.7762 30.8736 26.875 30.625 26.875Z" fill="white"/>
</svg>
