<svg width="50" height="50" viewBox="0 0 50 50" fill="none" xmlns="http://www.w3.org/2000/svg">
<circle cx="25" cy="25" r="25" fill="#F1BC00"/>
<g clip-path="url(#clip0_106_19)">
<path d="M33.8308 11.9082H16.1692C12.7675 11.9082 10 14.6757 10 18.0774C10 21.4956 12.7963 24.2466 16.1324 24.2466H18.9033V19.413C18.9033 17.2483 20.6644 15.4872 22.829 15.4872H22.8375C24.9976 15.4919 26.7549 17.2529 26.7549 19.413V24.2466H33.8308C37.2326 24.2466 40 21.4791 40 18.0774C40 14.6757 37.2326 11.9082 33.8308 11.9082ZM35.5766 17.2171L32.061 20.7328C31.7178 21.076 31.1613 21.0761 30.818 20.7328L29.0602 18.975C28.717 18.6317 28.717 18.0753 29.0602 17.732C29.4034 17.3888 29.9599 17.3888 30.3031 17.732L31.4395 18.8683L34.3337 15.9742C34.6769 15.631 35.2334 15.631 35.5766 15.9742C35.9198 16.3174 35.9198 16.874 35.5766 17.2171Z" fill="white"/>
<path d="M30.655 26.7203L24.997 26.1322V19.4131C24.997 18.2175 24.0292 17.2477 22.8337 17.2451C21.6346 17.2425 20.6611 18.2139 20.6611 19.4131V30.6583H20.6414L18.5014 28.8712C17.5987 28.1175 16.2518 28.2588 15.5252 29.1835C14.8285 30.0702 14.963 31.3502 15.8289 32.0727L20.1726 35.6974H32.9657V29.3367C32.9657 28.0065 31.9749 26.8847 30.655 26.7203Z" fill="white"/>
<path d="M20.6611 39.2129C20.6611 39.6983 21.0546 40.0918 21.54 40.0918H32.0869C32.5723 40.0918 32.9658 39.6983 32.9658 39.2129V37.4551H20.6611V39.2129Z" fill="white"/>
</g>
<defs>
<clipPath id="clip0_106_19">
<rect width="30" height="30" fill="white" transform="translate(10 10)"/>
</clipPath>
</defs>
</svg>
