<svg width="50" height="50" viewBox="0 0 50 50" fill="none" xmlns="http://www.w3.org/2000/svg">
<circle cx="25" cy="25" r="25" fill="#F1BC00"/>
<path d="M25 20.0001C25 14.4775 22.4792 10 19.375 10C16.2696 10 13.75 14.4775 13.75 20.0001C13.75 22.4035 15.265 24.4398 17.3852 25.2441L16.8749 37.4999C16.8749 38.8806 17.9942 40 19.375 40C20.7558 40 21.8751 38.8806 21.8751 37.4999L21.3648 25.2452C23.4865 24.4398 25 22.4035 25 20.0001Z" fill="white"/>
<path d="M36.25 19.0626L35.9376 10H34.375L34.0626 19.0626H32.8124L32.5 10H30.625L30.3126 19.0626H29.0624L28.75 10H27.1874L26.875 19.0626C26.875 20.9691 28.0177 22.6023 29.6534 23.335L29.0624 37.4999C29.0624 38.8806 30.1817 40 31.5625 40C32.9433 40 34.0626 38.8806 34.0626 37.4999L33.4716 23.335C35.1073 22.6023 36.25 20.9691 36.25 19.0626Z" fill="white"/>
</svg>
